<svg xmlns="http://www.w3.org/2000/svg" height="1024" preserveAspectRatio="none" style="display: block;" version="1.1" viewBox="0 0 2048 2048" width="1024">
<path d="M 0 0 L 2048 0 L 2048 2048 L 0 2048 L 0 0 z" fill="rgb(245,245,243)" transform="translate(0,0)"></path>
<path d="M 1401.41 836.093 C 1398.23 831.283 1396.34 827.216 1397.64 821.342 C 1401.89 802.105 1440.61 807.507 1456.08 807.447 L 1534.4 806.994 L 1630.55 806.219 C 1651.46 806.024 1685.73 803.635 1705.35 809.603 C 1731.44 817.539 1747.95 841.609 1751.44 868.374 C 1819.09 865.912 1855.66 856.076 1896.06 916.884 C 1922.37 956.48 1959.36 972.587 1958.9 1028.26 C 1958.82 1034.07 1958.24 1039.85 1957.18 1045.56 C 1950.17 1082.64 1936.36 1122.08 1927.64 1159.01 C 1926.88 1162.22 1923.89 1167.97 1921.5 1170.56 C 1912.61 1177.81 1876.78 1174.15 1863.87 1174.23 C 1854.24 1200.8 1838.97 1224.65 1812.34 1235.81 C 1758.67 1258.29 1710.78 1234 1708.82 1174.39 L 1609 1174.95 C 1592.7 1175.03 1576.3 1174.65 1560.04 1175.5 C 1548.93 1176.08 1542.43 1194.2 1537 1202.86 C 1497.74 1265.51 1396.31 1260.24 1395.81 1174.48 C 1373.66 1174.25 1351.44 1175 1329.36 1174.07 C 1315 1173.47 1308.63 1159.57 1319.32 1149.45 C 1316.48 1144.61 1327.7 1112.65 1329.82 1103.77 C 1330.72 1097.58 1332.03 1095.57 1333.37 1090.17 C 1334.17 1085.86 1335.55 1081.6 1336.61 1077.35 C 1344.2 1046.78 1353.95 1016.67 1361.58 986.143 C 1362.76 978.688 1363.2 978.418 1366.33 971.67 C 1370.08 956.556 1374.12 941.519 1377.71 926.37 C 1378.54 920.354 1379.45 918.253 1382.19 912.907 C 1383.53 905.051 1386.43 894.498 1388.36 886.557 C 1381.35 886.105 1336.48 887.872 1333.59 885.431 C 1330.69 882.969 1328.62 878.658 1328.5 874.846 C 1328.37 871.106 1329.71 867.958 1332.23 865.237 C 1333.88 863.457 1336.06 861.61 1338.5 861.075 C 1350.47 858.448 1380.39 860.687 1394.53 860.385 C 1396.76 853.227 1400.21 843.249 1401.41 836.093 z" fill="rgb(19,19,19)" transform="translate(0,0)"></path>
<path d="M 1401.41 836.093 C 1414.96 838.832 1447.48 836.346 1462.54 835.871 C 1510.04 834.415 1557.54 833.257 1605.06 832.398 C 1623.47 832.052 1678.63 829.902 1694.05 834.141 C 1702.57 836.517 1709.99 841.785 1715.04 849.041 C 1724.39 862.278 1725.93 880.129 1722.33 895.423 C 1715.53 924.263 1706.42 953.771 1698.35 982.324 C 1682.87 1037.14 1667.68 1092.03 1652.78 1147 L 1555.6 1147.95 C 1545.53 1054.32 1431.71 1059.37 1400.78 1148.05 C 1384.2 1147.81 1332.55 1146.45 1319.32 1149.45 C 1316.48 1144.61 1327.7 1112.65 1329.82 1103.77 C 1330.72 1097.58 1332.03 1095.57 1333.37 1090.17 C 1334.17 1085.86 1335.55 1081.6 1336.61 1077.35 C 1344.2 1046.78 1353.95 1016.67 1361.58 986.143 C 1362.76 978.688 1363.2 978.418 1366.33 971.67 C 1370.08 956.556 1374.12 941.519 1377.71 926.37 C 1378.54 920.354 1379.45 918.253 1382.19 912.907 C 1383.53 905.051 1386.43 894.498 1388.36 886.557 C 1381.35 886.105 1336.48 887.872 1333.59 885.431 C 1330.69 882.969 1328.62 878.658 1328.5 874.846 C 1328.37 871.106 1329.71 867.958 1332.23 865.237 C 1333.88 863.457 1336.06 861.61 1338.5 861.075 C 1350.47 858.448 1380.39 860.687 1394.53 860.385 C 1396.76 853.227 1400.21 843.249 1401.41 836.093 z" fill="rgb(22,185,119)" transform="translate(0,0)"></path>
<path d="M 1382.19 912.907 C 1384.45 911.059 1386.76 909.174 1389.8 908.998 C 1415.53 907.478 1441.57 909.216 1467.35 909.016 C 1482.92 908.949 1498.93 908.469 1514.44 908.718 C 1534.07 907.785 1534.6 931.848 1517.22 932.38 C 1480.08 933.516 1442.51 932.721 1405.31 933.015 C 1392.88 933.113 1387.33 935.074 1377.71 926.37 C 1378.54 920.354 1379.45 918.253 1382.19 912.907 z" fill="rgb(19,19,19)" transform="translate(0,0)"></path>
<path d="M 1394.53 860.385 C 1399.44 860.466 1406.47 859.966 1410.53 862.91 C 1417.84 868.198 1415.34 877.165 1409.77 882.764 C 1404.54 888.019 1395.16 886.876 1388.36 886.557 C 1381.35 886.105 1336.48 887.872 1333.59 885.431 C 1330.69 882.969 1328.62 878.658 1328.5 874.846 C 1328.37 871.106 1329.71 867.958 1332.23 865.237 C 1333.88 863.457 1336.06 861.61 1338.5 861.075 C 1350.47 858.448 1380.39 860.687 1394.53 860.385 z" fill="rgb(19,19,19)" transform="translate(0,0)"></path>
<path d="M 1366.33 971.67 C 1373.34 968.979 1433.97 967.142 1436.58 969.775 C 1465 998.468 1403.12 991.015 1388.5 991.707 C 1374.85 992.354 1369.49 994.272 1361.58 986.143 C 1362.76 978.688 1363.2 978.418 1366.33 971.67 z" fill="rgb(19,19,19)" transform="translate(0,0)"></path>
<path d="M 1333.37 1090.17 C 1335.22 1088.51 1339.93 1084.2 1342.51 1084.25 C 1352.51 1084.38 1368.96 1082.64 1378.5 1084.02 C 1398.91 1086.97 1391.51 1115.07 1369.91 1110.84 C 1356.05 1108.13 1340.52 1117.46 1329.82 1103.77 C 1330.72 1097.58 1332.03 1095.57 1333.37 1090.17 z" fill="rgb(19,19,19)" transform="translate(0,0)"></path>
<path d="M 1771.01 895.43 C 1775.58 894.987 1781.38 894.896 1785.93 894.869 C 1812.02 894.716 1835.24 890.246 1855.18 910.795 C 1868.58 924.603 1879.05 939.65 1891.15 954.774 C 1901.51 967.733 1914.5 980.482 1923.53 994.463 C 1940.27 1024.04 1925.16 1061.42 1916.26 1091.36 C 1910.91 1109.41 1905.67 1127.49 1900.52 1145.6 L 1866.95 1145.81 C 1866.79 1119.7 1854.7 1097.24 1831.96 1084.29 L 1830.71 1083.71 C 1802.8 1070.89 1769.83 1078.83 1747.02 1098.12 C 1730.26 1112.3 1722.02 1126.74 1713.12 1146.31 C 1701.63 1146.55 1690.14 1146.61 1678.65 1146.51 C 1686.84 1110.71 1698.14 1076.07 1707.81 1040.95 L 1736.73 933.403 C 1739.89 921.176 1742.3 909.135 1745.62 896.881 L 1771.01 895.43 z" fill="rgb(22,185,119)" transform="translate(0,0)"></path>
<path d="M 1766.93 920.405 C 1788.22 919.645 1816.96 919.646 1838.04 920.836 C 1848.46 934.259 1899.46 1001.72 1899.84 1013.56 C 1899.93 1016.41 1898.91 1018.8 1896.86 1020.77 C 1890.86 1026.52 1879.53 1024.94 1871.97 1024.83 C 1856.2 1024.82 1749.75 1027.13 1743.97 1023.51 C 1742.09 1022.33 1740.45 1019.51 1740.15 1017.43 C 1738.87 1008.38 1761.15 927.432 1766.93 920.405 z" fill="rgb(19,19,19)" transform="translate(0,0)"></path>
<path d="M 1784.24 943.418 C 1796.94 942.884 1811.01 943.031 1823.76 943.052 C 1835.65 959.119 1854.13 983.97 1864.9 1000.6 L 1847.83 1000.68 C 1822.76 1000.82 1793.58 1000.75 1768.58 1000.26 C 1773.66 983.137 1778.52 959.153 1784.24 943.418 z" fill="rgb(245,245,243)" transform="translate(0,0)"></path>
<path d="M 1790.1 1107.12 C 1800.98 1106.34 1809.86 1106.22 1819.56 1112.13 C 1844.6 1127.4 1843.51 1160.52 1829.01 1182.61 C 1817.98 1199.41 1806.56 1207.41 1787.24 1211.83 C 1718.91 1220.43 1725.81 1124.76 1790.1 1107.12 z" fill="rgb(245,245,243)" transform="translate(0,0)"></path>
<path d="M 1788.32 1137.19 C 1819.03 1135.58 1816.85 1172.79 1790.31 1182.12 C 1758.56 1181.52 1760.25 1148.54 1788.32 1137.19 z" fill="rgb(19,19,19)" transform="translate(0,0)"></path>
<path d="M 1477.13 1110.21 C 1540.52 1104.8 1541.71 1193.7 1475.58 1213.27 C 1407.33 1223.47 1410.56 1123.31 1477.13 1110.21 z" fill="rgb(245,245,243)" transform="translate(0,0)"></path>
<path d="M 1473.03 1138.25 C 1477.34 1137.81 1481.84 1137.18 1485.91 1138.38 C 1506.37 1144.43 1499.7 1173.86 1483.46 1180.92 C 1482.22 1181.46 1480.98 1182.14 1479.82 1182.74 C 1461.02 1184.75 1449.93 1175.61 1455.48 1154.74 C 1457.61 1146.72 1465.61 1141.51 1473.03 1138.25 z" fill="rgb(19,19,19)" transform="translate(0,0)"></path>
<path d="M 923.503 942.41 C 993.433 942.128 1037.72 999.05 1025.28 1066.83 C 981.912 1067.28 938.536 1066.99 895.175 1065.97 C 913.365 1097.23 925.282 1080.06 947.05 1080.96 C 958.302 1081.42 1002.47 1092.57 1012.35 1097.37 C 1012.42 1100.74 1011.27 1101.33 1009.26 1104.77 C 1007.98 1106.51 1006.64 1108.21 1005.26 1109.87 C 967.691 1154.77 907.903 1162.3 861.753 1124.84 C 818.584 1089.8 814.205 1018.23 850.969 977.109 C 870.184 955.618 894.685 944.442 923.503 942.41 z" fill="rgb(19,19,19)" transform="translate(0,0)"></path>
<path d="M 919.797 1006.17 C 932.42 1005.55 944.761 1008.05 953.63 1018.34 C 954.012 1018.78 954.612 1019.91 954.463 1020.56 C 953.344 1021.62 937.153 1021.16 934.5 1021.16 C 921.954 1021.28 909.407 1021.29 896.861 1021.19 C 904.599 1012.35 907.803 1009 919.797 1006.17 z" fill="rgb(245,245,243)" transform="translate(0,0)"></path>
<path d="M 229.054 944.928 L 309.561 944.878 C 372.042 945.285 399.402 984.167 396.112 1042.46 C 394.244 1075.55 394.878 1099.17 369.263 1124.56 C 342.643 1150.95 311.036 1146.29 277.061 1145.93 C 226.825 1140.87 199.168 1094.38 221.925 1047.48 C 232.538 1028.78 250.818 1018.67 271.234 1015.45 C 286.98 1012.97 317.069 1017.97 330.054 1014.3 L 330.144 1012.42 C 322.72 999.127 302.236 1002.98 288.602 1003.13 C 268.661 1003.34 248.72 1003.66 228.782 1004.08 L 229.054 944.928 z" fill="rgb(19,19,19)" transform="translate(0,0)"></path>
<path d="M 283.511 1069.11 C 289.475 1069 324.546 1068.32 332.262 1070.22 C 332.395 1070.26 332.636 1071.1 332.528 1071.49 C 331.335 1075.68 327.596 1078.83 324.435 1081.22 C 314.09 1085.26 311.599 1082.53 302.501 1084.08 C 293.243 1085.66 265.91 1084.41 283.511 1069.11 z" fill="rgb(245,245,243)" transform="translate(0,0)"></path>
<path d="M 1046.1 945.337 C 1064.19 944.975 1082.85 945.084 1100.89 945.007 C 1133.16 944.871 1165.88 941.679 1190.9 966.378 C 1210.42 985.647 1213.16 1006.85 1213.29 1032.65 C 1213.45 1066.33 1215.61 1095.57 1189.8 1121.64 C 1161.95 1149.77 1131.54 1145.31 1095.37 1145.19 C 1027.84 1144.82 1009.35 1050.57 1066.84 1021.87 C 1091.39 1009.62 1119.41 1016.7 1145.72 1014.38 C 1148.93 1014.1 1148.39 1014.18 1150.04 1012.01 C 1143.52 1000.92 1114.92 1003.46 1103.72 1003.54 L 1046.31 1003.83 L 1046.1 945.337 z" fill="rgb(22,185,119)" transform="translate(0,0)"></path>
<path d="M 1099.81 1068.86 C 1108.67 1068.75 1138.13 1068.68 1148.46 1069.43 C 1148.61 1069.44 1149.09 1070.33 1148.93 1070.95 C 1147.81 1075.28 1144.35 1078.26 1141.37 1080.92 C 1132.91 1084.36 1083.41 1091.61 1098.67 1070.5 L 1099.81 1068.86 z" fill="rgb(245,245,243)" transform="translate(0,0)"></path>
<path d="M 492.263 945.474 L 566.982 945.396 L 567.404 1001.77 C 555.543 1001.88 483.912 1000.31 478.524 1003.32 C 476.102 1006.53 476.84 1004.77 476.391 1008.89 C 482.399 1017.94 506.717 1013.46 518.31 1014.87 C 573.361 1021.56 600.583 1083.23 560.121 1124.77 C 541.624 1143.75 518.343 1146 492.25 1145.87 L 414.025 1145.82 C 414.069 1124.83 414.258 1103.85 414.59 1082.87 C 426.762 1082.96 503.05 1085.23 508.945 1082.29 C 519.691 1068.18 491.797 1069.67 484.742 1070.25 C 427.674 1074.86 383.796 1014.99 426.155 967.602 C 442.55 949.259 468.456 946.099 492.263 945.474 z" fill="rgb(19,19,19)" transform="translate(0,0)"></path>
<path d="M 594.69 897.994 L 658.886 897.948 L 659.206 944.539 C 673.955 944.947 689.222 944.927 704.017 945.104 C 704.144 964.826 703.844 984.548 703.118 1004.26 C 688.665 1003.6 673.359 1003.89 658.819 1003.96 C 658.52 1047.18 647.245 1081.98 702.422 1082.91 L 702.503 1099.51 L 702.123 1146 C 696.064 1146.09 690.003 1146.05 683.945 1145.87 C 641.054 1144.4 604.315 1120 596.525 1076.56 C 591.878 1050.64 594.074 1016.45 594.084 989.54 C 594.095 959.576 593.261 927.742 594.69 897.994 z" fill="rgb(19,19,19)" transform="translate(0,0)"></path>
<path d="M 1321.42 944.459 L 1339.27 944.237 C 1334.9 966.324 1330.9 986.76 1324.94 1008.43 C 1298.38 1015.64 1294.07 1023.19 1294.7 1050.88 C 1295.41 1082.17 1292.7 1114.74 1294.89 1145.89 L 1248.59 1145.57 L 1228.85 1145.59 L 1228.7 1077.2 C 1228.64 1036.97 1225.15 1002.62 1255.4 971.28 C 1275.57 950.382 1293.45 945.308 1321.42 944.459 z" fill="rgb(22,185,119)" transform="translate(0,0)"></path>
<path d="M 184.539 945.244 C 195.938 944.407 206.938 944.643 218.352 944.728 L 205.5 1009.07 C 167.025 1016.49 174.699 1046.27 174.85 1077.37 L 174.697 1145.73 L 144.441 1145.91 L 108.916 1145.99 C 108.328 1109.72 108.966 1073.05 109.079 1036.76 C 109.095 1031.56 110.158 1024.68 111.19 1019.57 C 113.872 1006 119.325 993.127 127.208 981.758 C 141.342 961.777 160.539 949.5 184.539 945.244 z" fill="rgb(19,19,19)" transform="translate(0,0)"></path>
<path d="M 799.605 945.297 C 809.338 944.669 819.825 944.997 829.633 945.099 C 825.531 966.709 821.642 988.573 816.136 1009.86 C 780.545 1011.36 786.681 1050.15 786.636 1074.8 L 786.532 1145.91 L 754.25 1145.77 L 720.771 1145.54 C 720.884 1125.12 720.851 1104.69 720.672 1084.27 C 720.44 1065.25 719.008 1036.53 722.665 1018.91 C 725.628 1005.2 731.381 992.245 739.566 980.853 C 754.313 960.465 774.982 949.112 799.605 945.297 z" fill="rgb(19,19,19)" transform="translate(0,0)"></path>
<path d="M 847.265 1235.05 C 867.058 1223.61 887.483 1213.3 908.441 1204.17 C 939.926 1190.23 964.683 1182.79 997.502 1173.99 C 1113.05 1143 1209.76 1159.59 1319.67 1202.02 L 1317.51 1203.42 C 1298.69 1197.65 1269.48 1193.61 1249.98 1190.32 C 1142.8 1172.2 1041.08 1179.05 936.757 1209.02 C 909.824 1216.75 875.826 1226.13 849.557 1236.43 L 847.265 1235.05 z" fill="rgb(19,19,19)" transform="translate(0,0)"></path>
<path d="M 1279.86 860.435 C 1289.13 860.199 1306.48 857.156 1307.04 870.521 C 1307.41 879.205 1303.11 885.152 1294.25 885.973 C 1287.88 885.972 1275.07 887.003 1269.43 884.166 C 1263.25 881.051 1263.67 871.549 1267.46 866.452 C 1269.63 863.502 1272.86 861.518 1276.47 860.927 C 1277.59 860.755 1278.73 860.61 1279.86 860.435 z" fill="rgb(19,19,19)" transform="translate(0,0)"></path>
<path d="M 1319.67 1202.02 C 1321 1202.5 1323.74 1203.18 1324.5 1204.36 C 1324.47 1204.46 1324.44 1204.57 1324.41 1204.68 C 1323.28 1205.17 1319.01 1203.76 1317.51 1203.42 L 1319.67 1202.02 z" fill="rgb(107,105,104)" transform="translate(0,0)"></path>
<path d="M 849.557 1236.43 C 848.822 1236.69 844.097 1238.85 843.696 1237.55 C 844.163 1236.51 846.341 1235.56 847.265 1235.05 L 849.557 1236.43 z" fill="rgb(107,105,104)" transform="translate(0,0)"></path>
<metadata><recraft-signature>{"signed_by": "recraft", "signature_b64": "6CSv/qhcCGmR/9tAJiAPMuqXYD8LDoj5dmGiqSNenjSe1l40M9J6glU1+11ItqG1XlR7ssro9m25RwhjG7nGDg==", "signing_algo": "Ed25519", "generation_timestamp": 1775872669, "identifier": "1b4edfcd-6324-4d0c-a541-1828315719cb"}</recraft-signature></metadata></svg>